<?xml version="1.0" encoding="UTF-8" standalone="no"?>
<!-- Created with Inkscape (http://www.inkscape.org/) -->

<svg
   xmlns:dc="http://purl.org/dc/elements/1.1/"
   xmlns:cc="http://creativecommons.org/ns#"
   xmlns:rdf="http://www.w3.org/1999/02/22-rdf-syntax-ns#"
   xmlns:svg="http://www.w3.org/2000/svg"
   xmlns="http://www.w3.org/2000/svg"
   xmlns:sodipodi="http://sodipodi.sourceforge.net/DTD/sodipodi-0.dtd"
   xmlns:inkscape="http://www.inkscape.org/namespaces/inkscape"
   width="51.483311"
   height="20.02"
   id="svg2"
   version="1.1"
   inkscape:version="0.48.3.1 r9886"
   sodipodi:docname="any_device.svg">
  <defs
     id="defs4" />
  <sodipodi:namedview
     id="base"
     pagecolor="#ffffff"
     bordercolor="#666666"
     borderopacity="1.0"
     inkscape:pageopacity="0.0"
     inkscape:pageshadow="2"
     inkscape:zoom="7.9195959"
     inkscape:cx="-5.4807892"
     inkscape:cy="10.989895"
     inkscape:document-units="px"
     inkscape:current-layer="layer1"
     showgrid="false"
     fit-margin-top="0"
     fit-margin-left="0"
     fit-margin-right="0"
     fit-margin-bottom="0"
     inkscape:window-width="1366"
     inkscape:window-height="719"
     inkscape:window-x="0"
     inkscape:window-y="24"
     inkscape:window-maximized="1" />
  <metadata
     id="metadata7">
    <rdf:RDF>
      <cc:Work
         rdf:about="">
        <dc:format>image/svg+xml</dc:format>
        <dc:type
           rdf:resource="http://purl.org/dc/dcmitype/StillImage" />
        <dc:title />
      </cc:Work>
    </rdf:RDF>
  </metadata>
  <g
     inkscape:label="Layer 1"
     inkscape:groupmode="layer"
     id="layer1"
     transform="translate(-691.65081,-392.32744)">
    <g
       id="g2986"
       transform="translate(691.16981,389.33944)"
       style="fill:#005212;fill-opacity:1">
      <path
         id="path2988"
         d="m 1.9,18.437 h 22.283 c 0.509,0 0.921,-0.412 0.921,-0.921 V 3.909 C 25.104,3.4 24.692,2.988 24.183,2.988 H 1.9 C 1.392,2.988 0.979,3.4 0.979,3.909 v 13.606 c 0,0.509 0.413,0.922 0.921,0.922 z M 2.821,4.829 H 23.262 V 16.596 H 2.821 V 4.829 z"
         inkscape:connector-curvature="0"
         style="fill:#005212;fill-opacity:1" />
      <path
         id="path2990"
         d="M 25.453,21.021 25.029,19.225 C 24.964,18.948 24.716,18.751 24.432,18.751 H 1.558 c -0.286,0 -0.534,0.198 -0.599,0.477 L 0.548,21.01 c -0.043,0.083 -0.067,0.179 -0.067,0.279 v 1.105 c 0,0.338 0.275,0.614 0.613,0.614 h 23.81 c 0.34,0 0.614,-0.276 0.614,-0.614 V 21.29 c 10e-4,-0.096 -0.024,-0.187 -0.065,-0.269 z m -15.55,1.589 0.266,-1.261 h 5.115 l 0.551,1.261 H 9.903 z M 1.515,20.881 1.884,19.474 h 22.231 l 0.472,1.407 H 1.515 z"
         inkscape:connector-curvature="0"
         style="fill:#005212;fill-opacity:1" />
      <path
         id="path2992"
         d="M 18.538,12.496 19.9,12.012 c 0.02,-0.022 0.027,-0.052 0.016,-0.083 -0.004,-0.01 -0.009,-0.02 -0.016,-0.027 -0.013,-0.013 -0.032,-0.02 -0.048,-0.022 l -3.533,-0.973 c -0.024,-10e-4 -0.044,0.006 -0.061,0.022 -0.015,0.016 -0.023,0.04 -0.023,0.062 l 1.194,3.75 c 0.004,0.03 0.023,0.055 0.051,0.064 0.028,0.012 0.057,0.004 0.08,-0.018 l 0.265,-1.579 1.861,1.86 c 0.028,0.03 0.076,0.03 0.109,0 l 0.604,-0.603 c 0.028,-0.03 0.028,-0.08 0,-0.109 l -1.861,-1.86 z"
         inkscape:connector-curvature="0"
         style="fill:#005212;fill-opacity:1" />
    </g>
    <path
       id="path3005"
       d="m 740.5053,404.47206 c 0.99966,0 1.81079,-0.80971 1.81079,-1.8088 0,-0.998 -0.81113,-1.80808 -1.81079,-1.80808 -1.00038,0 -1.81078,0.81008 -1.81078,1.80808 0,0.99909 0.8104,1.8088 1.81078,1.8088 z m -0.4704,-2.77088 c 0,-0.0457 0.0324,-0.0882 0.0832,-0.10557 0.0494,-0.0178 0.10716,-0.008 0.1453,0.025 l 1.11517,0.961 c 0.0527,0.045 0.0527,0.11826 0,0.1636 l -1.11517,0.961 c -0.0382,0.0334 -0.0963,0.0428 -0.1453,0.025 -0.0502,-0.0178 -0.0824,-0.0599 -0.0832,-0.10593 v -1.92417 z m 2.42322,-3.31433 h -3.90672 c -0.37306,0 -0.67564,0.30292 -0.67564,0.67513 v 7.9234 c 0,0.37257 0.30258,0.67476 0.67564,0.67476 h 3.90672 c 0.37342,0 0.676,-0.30219 0.676,-0.67476 v -7.9234 c 3.6e-4,-0.37221 -0.30222,-0.67513 -0.676,-0.67513 z m -0.44534,0.42336 c 0.0959,0 0.17363,0.0773 0.17363,0.17232 0,0.0958 -0.0777,0.17304 -0.17363,0.17304 -0.0955,0 -0.17327,-0.0773 -0.17327,-0.17304 0,-0.0951 0.0777,-0.17232 0.17327,-0.17232 z m -2.41341,0.0657 h 1.81151 v 0.19772 h -1.81151 v -0.19772 z m 1.73086,8.06452 h -1.64986 v -0.50716 h 1.64986 v 0.50716 z m 1.29788,-1.03972 0,0 h -4.24562 v -6.37325 h 4.24562 v 6.37325 z"
       inkscape:connector-curvature="0"
       style="fill:#005212;fill-opacity:1" />
    <path
       id="path3015"
       d="m 735.33182,405.57523 v -0.49716 h -0.43877 v -0.46353 h -0.44188 v -7.4791 c 0,-0.3285 -0.26802,-0.59493 -0.59503,-0.59493 h -15.5226 c -0.32856,0 -0.59503,0.26694 -0.59503,0.59493 v 10.34668 c 0,0.32851 0.26802,0.5939 0.59503,0.5939 h 11.50432 v 0.91723 h 0.46361 v 0.81118 h 0.36478 v 0.74652 0.42938 0.0414 h 4.20093 v -0.36006 -0.10813 -0.83601 h 0.44602 v -1.22454 h 0.43152 v -2.91776 h -0.4129 l 0,0 z m -1.4762,-3.2711 c 0.20542,0 0.37358,0.16658 0.37358,0.37351 0,0.20694 -0.16661,0.37352 -0.37358,0.37352 -0.20696,0 -0.37357,-0.16658 -0.37357,-0.37352 0,-0.20693 0.16816,-0.37351 0.37357,-0.37351 z m -4.88082,4.58254 h -10.04726 v -9.15629 h 14.33202 v 6.58566 h -0.0341 -0.0678 -0.36115 v -0.44594 h -0.78079 v -1.6922 h -0.39893 v -0.44646 h -0.95102 v 0.44646 h -0.44705 v 3.53028 h -0.42429 v -0.19969 h -0.71248 -0.43826 -0.0336 v 1.23229 h 0.36478 v 0.14589 l 0,0 z m 6.29804,1.48889 h -0.42998 v 0.94413 h -0.44653 v 1.23384 h -3.2582 v -0.80238 h -0.36529 v -0.99484 h -0.46361 v -0.67874 -0.13243 h -0.41497 v -0.46354 -0.38127 h -0.44705 v -0.21263 -0.21779 h -0.36375 v -0.68857 h 0.68817 v 0.37506 h 0.44757 v 0.5313 0.5939 0.1878 h 0.47033 v -0.1878 -0.5939 -4.68549 h 0.85478 v 3.82103 h 0.47137 v -1.68082 h 0.73939 v 1.86447 h 0.47034 v -1.41749 h 0.0341 0.59451 0.0921 v 1.71548 h 0.47085 v -1.4175 h 0.0321 0.32236 v 0.52044 h 0.50034 v 2.76877 h 0.001 z m -9.5464,-9.08025 c -1.66144,0 -3.00776,1.34714 -3.00776,3.00726 0,1.66116 1.34736,3.00727 3.00776,3.00727 1.6604,0 3.00776,-1.34714 3.00776,-3.00727 0,-1.66012 -1.34633,-3.00726 -3.00776,-3.00726 z m -1.02398,4.68808 v -3.35853 l 2.90946,1.67927 -2.90946,1.67926 z"
       inkscape:connector-curvature="0"
       style="fill:#005212;fill-opacity:1" />
  </g>
</svg>
