<?xml version="1.0" encoding="UTF-8" standalone="no"?>
<!-- Generator: Adobe Illustrator 16.0.0, SVG Export Plug-In . SVG Version: 6.00 Build 0)  -->

<svg
   xmlns:dc="http://purl.org/dc/elements/1.1/"
   xmlns:cc="http://creativecommons.org/ns#"
   xmlns:rdf="http://www.w3.org/1999/02/22-rdf-syntax-ns#"
   xmlns:svg="http://www.w3.org/2000/svg"
   xmlns="http://www.w3.org/2000/svg"
   xmlns:sodipodi="http://sodipodi.sourceforge.net/DTD/sodipodi-0.dtd"
   xmlns:inkscape="http://www.inkscape.org/namespaces/inkscape"
   version="1.1"
   id="Layer_1"
   x="0px"
   y="0px"
   width="200.66878"
   height="125.91605"
   viewBox="0 0 200.66878 125.91605"
   enable-background="new 0 0 100 100"
   xml:space="preserve"
   inkscape:version="0.48.3.1 r9886"
   sodipodi:docname="create_and_share.svg"><metadata
   id="metadata9"><rdf:RDF><cc:Work
       rdf:about=""><dc:format>image/svg+xml</dc:format><dc:type
         rdf:resource="http://purl.org/dc/dcmitype/StillImage" /><dc:title /></cc:Work></rdf:RDF></metadata><defs
   id="defs7" /><sodipodi:namedview
   pagecolor="#ffffff"
   bordercolor="#666666"
   borderopacity="1"
   objecttolerance="10"
   gridtolerance="10"
   guidetolerance="10"
   inkscape:pageopacity="0"
   inkscape:pageshadow="2"
   inkscape:window-width="1366"
   inkscape:window-height="719"
   id="namedview5"
   showgrid="false"
   fit-margin-top="0"
   fit-margin-left="0"
   fit-margin-right="0"
   fit-margin-bottom="0"
   inkscape:zoom="2.36"
   inkscape:cx="32.836137"
   inkscape:cy="89.542055"
   inkscape:window-x="0"
   inkscape:window-y="24"
   inkscape:window-maximized="1"
   inkscape:current-layer="Layer_1" />
<path
   d="M 56.94,77.20205 H 2.51 c -1.387,0 -2.51,1.123 -2.51,2.509 0,1.386 1.123,2.51 2.51,2.51 h 3.096 v 31.961 c 0,1.039 0.843,1.882 1.883,1.882 h 18.025 l -6.164,6.163 c -0.734,0.736 -0.734,1.926 0,2.662 0.734,0.734 1.926,0.734 2.661,0 l 7.476,-7.475 7.949,7.951 c 0.368,0.367 0.85,0.551 1.331,0.551 0.481,0 0.963,-0.184 1.331,-0.551 0.734,-0.736 0.734,-1.926 0,-2.662 l -6.641,-6.64 H 51.96 c 1.04,0 1.882,-0.843 1.882,-1.882 v -31.961 h 3.098 c 1.385,0 2.508,-1.124 2.508,-2.51 0,-1.386 -1.124,-2.508 -2.508,-2.508 z m -6.862,35.098 H 9.369 v -30.08 h 40.709 v 30.08 z"
   id="path3"
   inkscape:connector-curvature="0"
   style="fill:#005212;fill-opacity:1" />
<g
   id="g2987"
   transform="matrix(0.38781604,0,0,0.34989552,128.452,70.577739)"
   style="fill:#005212;fill-opacity:1">
	<path
   id="path2989"
   d="m 61.072,41.714 c 5.758,0 10.673,-2.036 14.746,-6.11 4.074,-4.074 6.111,-8.99 6.111,-14.747 0,-5.757 -2.037,-10.673 -6.111,-14.747 -4.073,-4.074 -8.988,-6.111 -14.746,-6.111 -5.758,0 -10.673,2.037 -14.747,6.111 -4.073,4.074 -6.11,8.989 -6.11,14.747 0,5.758 2.037,10.673 6.11,14.747 4.074,4.073 8.989,6.11 14.747,6.11 z"
   inkscape:connector-curvature="0"
   style="fill:#005212;fill-opacity:1" />
	<path
   id="path2991"
   d="m 85.88,74.264 c 6.11,6.109 13.483,9.165 22.12,9.165 8.637,0 16.01,-3.056 22.12,-9.165 6.11,-6.112 9.165,-13.485 9.165,-22.121 0,-8.636 -3.055,-16.009 -9.165,-22.12 -6.11,-6.111 -13.483,-9.166 -22.12,-9.166 -8.637,0 -16.01,3.056 -22.12,9.166 -6.11,6.11 -9.166,13.483 -9.166,22.12 0,8.637 3.056,16.01 9.166,22.121 z"
   inkscape:connector-curvature="0"
   style="fill:#005212;fill-opacity:1" />
	<path
   id="path2993"
   d="m 154.93,41.714 c 5.756,0 10.672,-2.036 14.746,-6.11 4.073,-4.074 6.109,-8.99 6.109,-14.747 0,-5.757 -2.036,-10.673 -6.109,-14.747 -4.074,-4.074 -8.99,-6.111 -14.746,-6.111 -5.759,0 -10.674,2.037 -14.748,6.111 -4.072,4.074 -6.109,8.989 -6.109,14.747 0,5.758 2.037,10.673 6.109,14.747 4.074,4.073 8.989,6.11 14.748,6.11 z"
   inkscape:connector-curvature="0"
   style="fill:#005212;fill-opacity:1" />
	<path
   id="path2995"
   d="m 176.111,41.715 c -0.325,0 -1.506,0.57 -3.543,1.711 -2.036,1.141 -4.685,2.295 -7.943,3.463 -3.258,1.167 -6.491,1.751 -9.695,1.751 -3.64,0 -7.25,-0.624 -10.836,-1.874 0.271,2.009 0.407,3.802 0.407,5.377 0,7.55 -2.2,14.502 -6.601,20.857 8.8,0.272 15.996,3.748 21.592,10.43 h 10.917 c 4.454,0 8.202,-1.102 11.243,-3.301 3.041,-2.199 4.562,-5.418 4.562,-9.654 0.001,-19.174 -3.366,-28.761 -10.103,-28.76 z"
   inkscape:connector-curvature="0"
   style="fill:#005212;fill-opacity:1" />
	<path
   id="path2997"
   d="m 163.934,107.585 c -0.57,-3.178 -1.291,-6.125 -2.16,-8.84 -0.869,-2.716 -2.037,-5.363 -3.502,-7.943 -1.467,-2.579 -3.151,-4.78 -5.053,-6.6 -1.902,-1.82 -4.224,-3.272 -6.966,-4.359 -2.743,-1.086 -5.772,-1.629 -9.084,-1.629 -0.544,0 -1.711,0.584 -3.504,1.752 -1.793,1.167 -3.774,2.472 -5.947,3.91 -2.173,1.438 -5.077,2.742 -8.718,3.91 -3.641,1.168 -7.307,1.752 -10.999,1.752 -3.693,0 -7.36,-0.584 -10.999,-1.752 -3.64,-1.168 -6.545,-2.472 -8.718,-3.91 -2.173,-1.438 -4.155,-2.743 -5.947,-3.91 -1.793,-1.168 -2.96,-1.752 -3.504,-1.752 -3.313,0 -6.341,0.543 -9.084,1.629 -2.743,1.087 -5.065,2.539 -6.966,4.359 -1.902,1.819 -3.585,4.021 -5.052,6.6 -1.466,2.58 -2.634,5.226 -3.503,7.943 -0.869,2.715 -1.588,5.662 -2.159,8.84 -0.571,3.178 -0.951,6.137 -1.141,8.881 -0.19,2.743 -0.285,5.554 -0.285,8.433 0,6.517 1.982,11.664 5.947,15.438 3.966,3.774 9.235,5.662 15.806,5.662 h 71.208 c 6.572,0 11.84,-1.888 15.807,-5.662 3.965,-3.774 5.947,-8.921 5.947,-15.438 0,-2.879 -0.096,-5.689 -0.283,-8.433 -0.192,-2.744 -0.572,-5.703 -1.141,-8.881 z"
   inkscape:connector-curvature="0"
   style="fill:#005212;fill-opacity:1" />
	<path
   id="path2999"
   d="m 78.099,73 c -4.4,-6.355 -6.599,-13.307 -6.598,-20.857 0,-1.575 0.136,-3.367 0.407,-5.377 -3.585,1.249 -7.197,1.874 -10.836,1.874 -3.205,0 -6.436,-0.584 -9.695,-1.751 -3.258,-1.168 -5.907,-2.322 -7.943,-3.463 -2.037,-1.141 -3.219,-1.711 -3.545,-1.711 -6.735,0 -10.103,9.587 -10.103,28.76 0,4.236 1.521,7.455 4.562,9.654 3.042,2.199 6.79,3.3 11.243,3.3 H 56.509 C 62.104,76.748 69.3,73.272 78.099,73 z"
   inkscape:connector-curvature="0"
   style="fill:#005212;fill-opacity:1" />
</g><path
   id="path3015"
   d="m 67.896288,46.457768 -13.970134,2.620774 c -0.525191,0.09852 -1.058632,0.410522 -1.386122,0.789848 -0.32749,0.379327 -0.503601,0.889195 -0.524225,1.422882 -0.04124,1.067366 0.665161,1.676587 1.715548,1.479535 l 9.558511,-1.79316 -16.592711,19.219119 c -0.764137,0.885091 -0.75492,1.995972 -0.04852,2.605192 0.706403,0.60922 1.756788,0.412169 2.520925,-0.472921 l 16.59271,-19.219119 -0.324824,9.756539 c -0.04124,1.067366 0.665161,1.676587 1.715549,1.479534 1.050386,-0.197052 1.869105,-1.145362 1.910346,-2.212729 l 0.548492,-14.195959 c 0.02062,-0.533681 -0.122503,-0.877704 -0.475706,-1.182314 -0.353202,-0.30461 -0.714653,-0.395744 -1.239843,-0.297221 z"
   inkscape:connector-curvature="0"
   style="fill:#005212;fill-opacity:1" /><g
   id="g3063"
   transform="matrix(1.7439522,0,0,1.8568456,64.544043,0)"
   style="fill:#005212;fill-opacity:1"><path
     id="path3025"
     d="m 26.969,6.059 c -0.746,0 -1.49,0.104 -2.223,0.305 C 23.848,2.641 20.539,0 16.646,0 12.93,0 9.631,2.521 8.623,6.064 8.531,6.061 8.439,6.059 8.346,6.059 3.742,6.059 0,9.803 0,14.404 c 0,4.601 3.742,8.344 8.346,8.344 h 18.623 c 4.604,0 8.344,-3.742 8.344,-8.344 0,-4.602 -3.741,-8.345 -8.344,-8.345 z m 0,15.55 h -6.49 c 0,-1.521 0,-4.686 0,-6.377 0,-0.588 0,-0.973 0,-0.973 0,0 1.412,0 2.297,0 0.885,0 0.219,-0.664 0.219,-0.664 0,0 -4.832,-4.992 -5.355,-5.514 C 17.259,7.7 16.896,8.12 16.896,8.12 l -5.492,5.348 c 0,0 -0.672,0.633 0.061,0.633 0.729,0 2.49,0 2.49,0 0,0 0,0.432 0,1.084 0,1.779 0,4.908 0,6.424 H 8.346 c -3.977,0 -7.209,-3.23 -7.209,-7.205 0,-3.975 3.232,-7.211 7.209,-7.211 0.221,0 0.443,0.018 0.662,0.037 l 0.5,0.045 0.105,-0.492 c 0.723,-3.27 3.682,-5.643 7.033,-5.643 3.553,0 6.541,2.543 7.105,6.053 l 0.109,0.68 0.646,-0.238 c 0.805,-0.289 1.635,-0.441 2.461,-0.441 3.975,0 7.209,3.236 7.209,7.211 0,3.975 -3.233,7.204 -7.207,7.204 z"
     inkscape:connector-curvature="0"
     style="fill:#005212;fill-opacity:1" /><g
     id="g3027"
     style="fill:#005212;fill-opacity:1">
</g><g
     id="g3029"
     style="fill:#005212;fill-opacity:1">
</g><g
     id="g3031"
     style="fill:#005212;fill-opacity:1">
</g><g
     id="g3033"
     style="fill:#005212;fill-opacity:1">
</g><g
     id="g3035"
     style="fill:#005212;fill-opacity:1">
</g><g
     id="g3037"
     style="fill:#005212;fill-opacity:1">
</g><g
     id="g3039"
     style="fill:#005212;fill-opacity:1">
</g><g
     id="g3041"
     style="fill:#005212;fill-opacity:1">
</g><g
     id="g3043"
     style="fill:#005212;fill-opacity:1">
</g><g
     id="g3045"
     style="fill:#005212;fill-opacity:1">
</g><g
     id="g3047"
     style="fill:#005212;fill-opacity:1">
</g><g
     id="g3049"
     style="fill:#005212;fill-opacity:1">
</g><g
     id="g3051"
     style="fill:#005212;fill-opacity:1">
</g><g
     id="g3053"
     style="fill:#005212;fill-opacity:1">
</g><g
     id="g3055"
     style="fill:#005212;fill-opacity:1">
</g></g><path
   id="path3015-9"
   d="m 135.87456,70.344405 0.39318,-14.123714 c 0.0148,-0.530963 -0.1744,-1.114884 -0.47148,-1.512895 -0.29709,-0.398013 -0.75157,-0.67644 -1.26149,-0.808826 -1.01983,-0.264768 -1.75441,0.293253 -1.78397,1.355189 l -0.26902,9.663588 -15.05206,-20.165774 c -0.69318,-0.928687 -1.76548,-1.153592 -2.50006,-0.595573 -0.73457,0.558021 -0.76413,1.619953 -0.0709,2.54864 l 15.05206,20.165778 -9.33292,-2.36948 c -1.01983,-0.264769 -1.75441,0.293251 -1.78397,1.35519 -0.0296,1.061929 0.71314,2.056958 1.73297,2.321722 l 13.56374,3.521345 c 0.50991,0.132384 0.87129,0.06576 1.23858,-0.213247 0.36728,-0.279018 0.5306,-0.610981 0.54539,-1.141943 z"
   inkscape:connector-curvature="0"
   inkscape:transform-center-y="11.908372"
   inkscape:transform-center-x="1.9330354"
   style="fill:#005212;fill-opacity:1" /></svg>