<?xml version="1.0" encoding="UTF-8" standalone="no"?>
<svg
   xmlns:dc="http://purl.org/dc/elements/1.1/"
   xmlns:cc="http://creativecommons.org/ns#"
   xmlns:rdf="http://www.w3.org/1999/02/22-rdf-syntax-ns#"
   xmlns:svg="http://www.w3.org/2000/svg"
   xmlns="http://www.w3.org/2000/svg"
   xmlns:sodipodi="http://sodipodi.sourceforge.net/DTD/sodipodi-0.dtd"
   xmlns:inkscape="http://www.inkscape.org/namespaces/inkscape"
   viewBox="0 0 954.90558 419.87608"
   id="svg2"
   version="1.1"
   inkscape:version="0.48.3.1 r9886"
   width="100%"
   height="100%"
   sodipodi:docname="html5_css3.svg">
  <metadata
     id="metadata30">
    <rdf:RDF>
      <cc:Work
         rdf:about="">
        <dc:format>image/svg+xml</dc:format>
        <dc:type
           rdf:resource="http://purl.org/dc/dcmitype/StillImage" />
        <dc:title>HTML5 Logo</dc:title>
      </cc:Work>
    </rdf:RDF>
  </metadata>
  <defs
     id="defs28" />
  <sodipodi:namedview
     pagecolor="#ffffff"
     bordercolor="#666666"
     borderopacity="1"
     objecttolerance="10"
     gridtolerance="10"
     guidetolerance="10"
     inkscape:pageopacity="0"
     inkscape:pageshadow="2"
     inkscape:window-width="1366"
     inkscape:window-height="719"
     id="namedview26"
     showgrid="false"
     fit-margin-top="0"
     fit-margin-left="0"
     fit-margin-right="0"
     fit-margin-bottom="0"
     inkscape:zoom="0.4609375"
     inkscape:cx="115.1975"
     inkscape:cy="149.695"
     inkscape:window-x="0"
     inkscape:window-y="24"
     inkscape:window-maximized="1"
     inkscape:current-layer="svg2" />
  <title
     id="title4">HTML5 Logo</title>
  <path
     id="path3008"
     d="m 568.63848,227.42895 c 10.78744,0 19.17767,8.21676 19.17767,18.07688 0,9.86011 -8.39023,18.07687 -19.17767,18.07687 h -74.31349 v 67.92523 c 0,9.86011 -8.98954,17.52909 -19.77698,17.52909 -10.78745,0 -19.77698,-7.66898 -19.77698,-17.52909 V 263.5827 h -74.3135 c -10.78744,0 -19.77697,-8.21676 -19.77697,-18.07687 0,-9.86012 8.98953,-18.07688 19.77697,-18.07688 h 74.3135 v -67.92524 c 0,-9.8601 8.98953,-18.07687 19.77698,-18.07687 10.78744,0 19.77698,8.21677 19.77698,18.07687 v 67.92524 h 74.31349 z"
     inkscape:connector-curvature="0"
     style="fill:#005212;fill-opacity:1" />
  <g
     id="Page 1"
     style="fill:none;stroke:none"
     transform="translate(657.38458,-0.134922)">
    <g
       id="Layer_1">
      <path
         id="Shape"
         d="m 233.164,15.681 -24.688,0 25.674,27.859 0,13.261 -52.882,0 0,-15.526 25.669,0 -25.669,-27.86 0,-13.28 51.896,0 0,15.546 0,0 z m -62.378,0 -24.688,0 25.673,27.859 0,13.261 -52.882,0 0,-15.526 25.672,0 -25.672,-27.86 0,-13.28 51.897,0 0,15.546 0,0 z m -61.768,0.631 -26.64,0 0,24.313 26.64,0 0,16.176 -45.574,0 0,-56.666 45.574,0 0,16.177 0,0 z m 0,0"
         inkscape:connector-curvature="0"
         style="fill:#131313" />
      <path
         id="path3028"
         d="M 27.142,386.29 0.071,82.67 l 297.45,0 -27.096,303.571 -121.811,33.77 L 27.142,386.29 z m 0,0"
         inkscape:connector-curvature="0"
         style="fill:#1572b6" />
      <path
         id="path3030"
         d="m 148.798,394.199 98.427,-27.288 23.157,-259.415 -121.584,0 0,286.703 z m 0,0"
         inkscape:connector-curvature="0"
         style="fill:#33a9dc" />
      <g
         transform="translate(55,142)"
         id="Group">
        <path
           id="path3033"
           d="m 93.797,75.496 49.275,0 3.403,-38.132 -52.678,0 0,-37.239 0.129,0 93.246,0 -0.893,9.991 -9.152,102.616 -83.33,0 0,-37.236 z m 0,0"
           inkscape:connector-curvature="0"
           style="fill:#ffffff" />
        <path
           id="path3035"
           d="m 94.02,172.204 -0.163,0.046 -41.472,-11.199 -2.652,-29.698 -20.151,0 -17.228,0 5.216,58.467 76.278,21.176 0.172,-0.048 0,-38.744 z m 0,0"
           inkscape:connector-curvature="0"
           style="fill:#ebebeb" />
        <path
           id="path3037"
           d="m 139.907,111.156 -4.484,49.87 -41.532,11.21 0,38.742 76.339,-21.158 0.56,-6.29 6.478,-72.374 -37.361,0 z m 0,0"
           inkscape:connector-curvature="0"
           style="fill:#ffffff" />
        <path
           id="path3039"
           d="m 93.926,0.125 0,23.128 0,14.019 0,0.092 -89.828,0 -0.119,0 -0.747,-8.37 -1.697,-18.878 -0.89,-9.991 93.281,0 z m 0,0"
           inkscape:connector-curvature="0"
           style="fill:#ebebeb" />
        <path
           id="path3041"
           d="m 93.797,75.5 0,23.129 0,14.017 0,0.092 -40.828,0 -0.119,0 -0.746,-8.369 -1.698,-18.878 -0.89,-9.991 44.281,0 z m 0,0"
           inkscape:connector-curvature="0"
           style="fill:#ebebeb" />
      </g>
    </g>
  </g>
  <g
     id="g3088"
     transform="matrix(0.82002239,0,0,0.82007031,-61.200731,0)">
    <polygon
       id="polygon3062"
       points="437.367,100.62 404.321,470.819 255.778,512 107.644,470.877 74.633,100.62 "
       style="fill:#e44d26" />
    <polygon
       id="polygon3064"
       points="256,480.523 376.03,447.246 404.27,130.894 256,130.894 "
       style="fill:#f16529" />
    <polygon
       id="polygon3066"
       points="191.76,221.716 256,221.716 256,176.305 255.843,176.305 142.132,176.305 143.219,188.488 154.38,313.627 256,313.627 256,268.217 195.91,268.217 "
       style="fill:#ebebeb" />
    <polygon
       id="polygon3068"
       points="201.994,336.333 177.419,336.333 156.409,336.333 162.771,407.634 255.791,433.457 256,433.399 256,386.153 255.801,386.206 205.227,372.55 "
       style="fill:#ebebeb" />
    <path
       id="path3070"
       d="m 108.382,0 h 23.077 v 22.8 h 21.11 V 0 h 23.078 V 69.044 H 152.57 v -23.12 h -21.11 v 23.12 H 108.383 V 0 z"
       inkscape:connector-curvature="0" />
    <path
       id="path3072"
       d="M 205.994,22.896 H 185.678 V 0 h 63.72 V 22.896 H 229.073 V 69.044 H 205.995 V 22.896 z"
       inkscape:connector-curvature="0" />
    <path
       id="path3074"
       d="m 259.511,0 h 24.063 L 298.376,24.26 313.163,0 h 24.072 V 69.044 H 314.253 V 34.822 l -15.877,24.549 h -0.397 L 282.091,34.822 v 34.222 h -22.58 V 0 z"
       inkscape:connector-curvature="0" />
    <path
       id="path3076"
       d="m 348.72,0 h 23.084 v 46.222 h 32.453 V 69.044 H 348.72 V 0 z"
       inkscape:connector-curvature="0" />
    <polygon
       id="polygon3078"
       points="255.843,313.627 311.761,313.627 306.49,372.521 255.843,386.191 255.843,433.435 348.937,407.634 349.62,399.962 360.291,280.411 361.399,268.217 349.162,268.217 255.843,268.217 "
       style="fill:#ffffff" />
    <polygon
       id="polygon3080"
       points="255.843,221.605 255.843,221.716 365.385,221.716 365.385,221.716 365.531,221.716 366.442,211.509 368.511,188.488 369.597,176.305 255.843,176.305 255.843,204.509 "
       style="fill:#ffffff" />
  </g>
</svg>
