<?xml version="1.0" encoding="UTF-8" standalone="no"?>
<!-- Generator: Adobe Illustrator 16.0.4, SVG Export Plug-In . SVG Version: 6.00 Build 0)  -->

<svg
   xmlns:dc="http://purl.org/dc/elements/1.1/"
   xmlns:cc="http://creativecommons.org/ns#"
   xmlns:rdf="http://www.w3.org/1999/02/22-rdf-syntax-ns#"
   xmlns:svg="http://www.w3.org/2000/svg"
   xmlns="http://www.w3.org/2000/svg"
   xmlns:sodipodi="http://sodipodi.sourceforge.net/DTD/sodipodi-0.dtd"
   xmlns:inkscape="http://www.inkscape.org/namespaces/inkscape"
   version="1.1"
   id="Capa_1"
   x="0px"
   y="0px"
   width="135.05594"
   height="89.227303"
   viewBox="0 0 135.05594 89.227302"
   enable-background="new 0 0 64 64"
   xml:space="preserve"
   inkscape:version="0.48.3.1 r9886"
   sodipodi:docname="no_flash.svg"><metadata
   id="metadata11"><rdf:RDF><cc:Work
       rdf:about=""><dc:format>image/svg+xml</dc:format><dc:type
         rdf:resource="http://purl.org/dc/dcmitype/StillImage" /><dc:title /></cc:Work></rdf:RDF></metadata><defs
   id="defs9" /><sodipodi:namedview
   pagecolor="#ffffff"
   bordercolor="#666666"
   borderopacity="1"
   objecttolerance="10"
   gridtolerance="10"
   guidetolerance="10"
   inkscape:pageopacity="0"
   inkscape:pageshadow="2"
   inkscape:window-width="1366"
   inkscape:window-height="719"
   id="namedview7"
   showgrid="false"
   inkscape:object-paths="true"
   inkscape:snap-smooth-nodes="true"
   inkscape:snap-page="true"
   fit-margin-top="0"
   fit-margin-left="0"
   fit-margin-right="0"
   fit-margin-bottom="0"
   inkscape:zoom="3.6875"
   inkscape:cx="62.818642"
   inkscape:cy="72.443042"
   inkscape:window-x="0"
   inkscape:window-y="24"
   inkscape:window-maximized="1"
   inkscape:current-layer="Capa_1" />
<path
   d="m 93.174926,34.174092 0.271,5.781 0.898,6.99 c 0.625,-0.185 1.252,-0.302 1.88,-0.302 0.318,0 0.638,0.025 0.95,0.075 1.588,0.251 3.001004,1.119 4.197004,2.463 l -0.576,-6.523 c -0.073,-0.825 0.537,-1.553 1.362,-1.626 0.823,-0.066 1.553,0.537 1.626,1.362 l 1.435,16.261 c 0.207,1.335 0.333,2.742 0.372,4.208 l 1.597,18.095 c 0.073,0.825 -0.537,1.553 -1.362,1.626 -0.045,0.004 -0.089,0.006 -0.134,0.006 -0.769,0 -1.423,-0.588 -1.492,-1.368 l -0.463,-5.25 c -1.017,3.193 -2.389,6.024 -3.977004,8.288 2.195004,2.643 7.326004,4.62 14.735994,4.62 9.265,0 14.97,-3.088 15.81701,-6.707 h 0.43699 l 4.30701,-41.999 v -6 H 93.174926 z m 22.881004,47 c 0,0.828 -0.672,1.5 -1.5,1.5 -0.828,0 -1.5,-0.672 -1.5,-1.5 v -39 c 0,-0.829 0.672,-1.5 1.5,-1.5 0.828,0 1.5,0.671 1.5,1.5 v 39 z m 8.22499,0.049 c -0.067,0.78 -0.72399,1.368 -1.49199,1.368 -0.045,0 -0.088,-0.002 -0.13301,-0.006 -0.82599,-0.072 -1.43699,-0.802 -1.363,-1.626 l 3.40201,-38.564 c 0.072,-0.826 0.81299,-1.429 1.627,-1.362 0.824,0.073 1.43599,0.801 1.361,1.626 l -3.40201,38.564 z"
   id="path3"
   inkscape:connector-curvature="0"
   style="fill:#005212;fill-opacity:1" />
<path
   d="m 97.017926,47.706092 c -0.261,-0.041 -0.528,-0.062 -0.794,-0.062 -0.011,0 -0.021,0.003 -0.032,0.003 -0.519,-0.313 -1.064,-0.541 -1.647,-0.633 -0.111,-0.018 -0.222,-0.024 -0.333,-0.033 -5.215,-0.416 -10.861,8.568 -12.612,19.65 -1.789,11.318 0.978,21.707 6.284,22.546 0.195,0.031 0.392,0.044 0.588,0.049 0.65,0.015 1.306,-0.11 1.959,-0.366 0.028,0.006 0.054,0.019 0.082,0.021 0.264,0.042 0.534,0.062 0.803,0.062 5.412,0 11.159004,-8.506 12.811004,-18.959 1.765,-11.188 -1.489,-21.39 -7.109004,-22.278 z m -7.849,24.538 c -0.65,-0.104 -1.102,-0.959 -1.286,-2.152 l -2.561,-0.494 1.121,-5.811 2.462,0.475 c 0.521,-0.925 1.151,-1.49 1.746,-1.396 1.101,0.176 1.649,2.498 1.251,5.018 -0.398,2.52 -1.632,4.534 -2.733,4.36 z m -1.934,-7.287 2.838,0.547 -0.741,3.846 -2.838,-0.546 0.741,-3.847 z"
   id="path5"
   inkscape:connector-curvature="0"
   style="fill:#005212;fill-opacity:1" />
<g
   id="g2989"
   transform="matrix(2.538131,0,0,2.349881,-6.680551e-8,1.0668131)"
   style="fill:#aa0000">
	<path
   id="path2991"
   d="M 11.652,-0.001 C 5.217,-0.001 0,5.216 0,11.651 c 0,6.436 5.217,11.652 11.652,11.652 6.435,0 11.652,-5.217 11.652,-11.652 0,-6.435 -5.216,-11.652 -11.652,-11.652 z m 5.073,7.148 c 0,0 -1.95,-0.032 -2.739,1.199 -0.217,0.34 -0.503,0.936 -0.82,1.641 h 2.055 v 2.772 h -3.239 c -0.466,1.097 -0.895,2.086 -1.175,2.567 -0.72,1.23 -1.951,2.224 -3.014,2.669 -1.059,0.443 -2.325,0.408 -2.325,0.408 v -2.702 c 0,0 2.018,0.273 3.113,-2.019 1.095,-2.292 2.395,-6.468 4.449,-8.007 2.052,-1.54 3.696,-1.164 3.695,-1.164 v 2.636 z"
   inkscape:connector-curvature="0"
   style="fill:#aa0000" />
</g><g
   id="g3054"
   transform="matrix(0.76211963,1.3625465,-1.5832088,1.1117136,85.607581,3.8492607)"
   style="fill:#80ac80;fill-opacity:1"><path
     id="path3016"
     d="m -6.6156324,12.42101 c 0,-11.2708153 8.4258753,-20.4802146 19.0265984,-20.8439298 v -3.8429672 c 0,-0.276597 0.157169,-0.522704 0.394963,-0.627245 0.234732,-0.104541 0.508247,-0.04465 0.693992,0.147011 l 7.046056,7.5552572 c 0.244938,0.2613522 0.244938,0.6893165 -0.0041,0.9528467 L 13.495838,3.293283 C 13.314176,3.495831 13.043723,3.5524573 12.805929,3.4402936 12.569155,3.3422866 12.410966,3.0940019 12.410966,2.82176 V -1.4600607 C 5.4720696,-1.1703953 -0.09109011,4.9463359 -0.09109011,12.47328 c 0,0.378961 -0.2847407,0.678427 -0.63581884,0.678427 H -5.9818547 c -0.3510782,-0.0011 -0.6337777,-0.35827 -0.6337777,-0.730697 z"
     inkscape:connector-curvature="0"
     style="fill:#80ac80;fill-opacity:1" /><g
     id="g3018"
     style="fill:#80ac80;fill-opacity:1">
</g><g
     id="g3020"
     style="fill:#80ac80;fill-opacity:1">
</g><g
     id="g3022"
     style="fill:#80ac80;fill-opacity:1">
</g><g
     id="g3024"
     style="fill:#80ac80;fill-opacity:1">
</g><g
     id="g3026"
     style="fill:#80ac80;fill-opacity:1">
</g><g
     id="g3028"
     style="fill:#80ac80;fill-opacity:1">
</g><g
     id="g3030"
     style="fill:#80ac80;fill-opacity:1">
</g><g
     id="g3032"
     style="fill:#80ac80;fill-opacity:1">
</g><g
     id="g3034"
     style="fill:#80ac80;fill-opacity:1">
</g><g
     id="g3036"
     style="fill:#80ac80;fill-opacity:1">
</g><g
     id="g3038"
     style="fill:#80ac80;fill-opacity:1">
</g><g
     id="g3040"
     style="fill:#80ac80;fill-opacity:1">
</g><g
     id="g3042"
     style="fill:#80ac80;fill-opacity:1">
</g><g
     id="g3044"
     style="fill:#80ac80;fill-opacity:1">
</g><g
     id="g3046"
     style="fill:#80ac80;fill-opacity:1">
</g></g></svg>