<?xml version="1.0" encoding="UTF-8" standalone="no"?>
<!-- Generator: Adobe Illustrator 16.0.0, SVG Export Plug-In . SVG Version: 6.00 Build 0)  -->

<svg
   xmlns:dc="http://purl.org/dc/elements/1.1/"
   xmlns:cc="http://creativecommons.org/ns#"
   xmlns:rdf="http://www.w3.org/1999/02/22-rdf-syntax-ns#"
   xmlns:svg="http://www.w3.org/2000/svg"
   xmlns="http://www.w3.org/2000/svg"
   xmlns:sodipodi="http://sodipodi.sourceforge.net/DTD/sodipodi-0.dtd"
   xmlns:inkscape="http://www.inkscape.org/namespaces/inkscape"
   version="1.1"
   id="Layer_1"
   x="0px"
   y="0px"
   width="59.448002"
   height="48.714001"
   viewBox="0 0 59.448002 48.714001"
   enable-background="new 0 0 100 100"
   xml:space="preserve"
   inkscape:version="0.48.3.1 r9886"
   sodipodi:docname="presentation_logo.svg"><metadata
   id="metadata9"><rdf:RDF><cc:Work
       rdf:about=""><dc:format>image/svg+xml</dc:format><dc:type
         rdf:resource="http://purl.org/dc/dcmitype/StillImage" /></cc:Work></rdf:RDF></metadata><defs
   id="defs7" /><sodipodi:namedview
   pagecolor="#ffffff"
   bordercolor="#666666"
   borderopacity="1"
   objecttolerance="10"
   gridtolerance="10"
   guidetolerance="10"
   inkscape:pageopacity="0"
   inkscape:pageshadow="2"
   inkscape:window-width="1366"
   inkscape:window-height="719"
   id="namedview5"
   showgrid="false"
   fit-margin-top="0"
   fit-margin-left="0"
   fit-margin-right="0"
   fit-margin-bottom="0"
   inkscape:zoom="2.36"
   inkscape:cx="-39.197763"
   inkscape:cy="25.559"
   inkscape:window-x="0"
   inkscape:window-y="24"
   inkscape:window-maximized="1"
   inkscape:current-layer="Layer_1" />
<path
   d="M 56.94,0 H 2.51 C 1.123,0 0,1.123 0,2.509 0,3.895 1.123,5.019 2.51,5.019 H 5.606 V 36.98 c 0,1.039 0.843,1.882 1.883,1.882 h 18.025 l -6.164,6.163 c -0.734,0.736 -0.734,1.926 0,2.662 0.734,0.734 1.926,0.734 2.661,0 l 7.476,-7.475 7.949,7.951 c 0.368,0.367 0.85,0.551 1.331,0.551 0.481,0 0.963,-0.184 1.331,-0.551 0.734,-0.736 0.734,-1.926 0,-2.662 l -6.641,-6.64 H 51.96 c 1.04,0 1.882,-0.843 1.882,-1.882 V 5.018 h 3.098 c 1.385,0 2.508,-1.124 2.508,-2.51 C 59.448,1.122 58.324,0 56.94,0 z M 50.078,35.098 H 9.369 V 5.018 h 40.709 v 30.08 z"
   id="path3"
   style="fill:#005212;fill-opacity:1"
   inkscape:connector-curvature="0" />
</svg>